<svg xmlns="http://www.w3.org/2000/svg" height="48" viewBox="0 96 960 960" width="48"><path d="M142.152 910.391q-30.745 0-54.025-23.279-23.28-23.279-23.28-54.025V318.913q0-30.844 23.28-54.194 23.28-23.349 54.025-23.349h675.696q30.844 0 54.194 23.349 23.349 23.35 23.349 54.194v514.174q0 30.746-23.349 54.025-23.35 23.279-54.194 23.279H142.152Zm0-77.304h675.696V402.913H142.152v430.174ZM300 770.37 251.63 722l103-104-104-104L300 465.63 452.37 618 300 770.37Zm185.913 1.717v-69.174h229.174v69.174H485.913Z"/></svg>